<?xml version="1.0" encoding="UTF-8"?>
<svg
   width="358.08008"
   height="72.191399"
   viewBox="0 0 358.08008 72.191399"
   role="img"
   aria-label="Mathcot wordmark"
   version="1.1"
   id="svg1"
   xmlns="http://www.w3.org/2000/svg"
   xmlns:svg="http://www.w3.org/2000/svg">
  <path
     id="text1"
     fill="currentColor"
     d="m 174.76757,0 v 71.039062 h 7.67969 V 36.671874 c 0,-1.599998 0.32094,-2.976907 0.96094,-4.128906 0.704,-1.215999 1.6312,-2.208563 2.7832,-2.976562 1.152,-0.767999 2.43185,-1.342563 3.83985,-1.726563 1.47199,-0.383999 2.97572,-0.576172 4.51171,-0.576172 7.488,0 11.23243,4.447759 11.23243,13.34375 v 30.431641 h 7.67968 V 39.263671 c 0,-6.015994 -1.50372,-10.655925 -4.51171,-13.919921 -2.944,-3.327997 -6.97571,-4.992188 -12.09571,-4.992188 -3.71199,0 -6.68773,0.832095 -8.92773,2.496094 -2.176,1.663998 -3.87189,3.902753 -5.08789,6.71875 h -0.38477 V 0 Z m -32.14453,7.77539 v 9.214844 c 0,1.663998 -0.31898,2.848735 -0.95898,3.552734 -0.576,0.64 -1.69538,0.960938 -3.35938,0.960938 h -4.60937 v 6.71875 h 8.16015 v 34.656246 c 1e-5,2.432 0.67163,4.41713 2.01563,5.95313 1.408,1.472 3.45653,2.20703 6.14453,2.20703 h 9.59961 v -6.7207 H 149.53515 V 28.222656 h 10.84961 v -6.71875 H 149.53515 V 7.77539 Z m 197.69727,0 v 9.214844 c 0,1.663998 -0.32094,2.848735 -0.96094,3.552734 -0.576,0.64 -1.69538,0.960938 -3.35937,0.960938 h -4.60743 v 6.71875 h 8.16016 v 34.656246 c 0,2.432 0.67163,4.41713 2.01563,5.95313 1.40799,1.472 3.45458,2.20703 6.14257,2.20703 h 9.60157 v -6.7207 H 347.23242 V 28.222656 h 10.84765 v -6.71875 H 347.23242 V 7.77539 Z M 21.408203,20.351562 c -1.919998,0 -3.584189,0.255579 -4.992187,0.767578 -1.407999,0.448 -2.656142,1.087923 -3.744141,1.919922 -1.023999,0.831999 -1.919501,1.824564 -2.6875,2.976562 -0.703999,1.087999 -1.343922,2.270783 -1.919922,3.550782 H 7.679688 v -8.0625 H 0 V 71.039062 H 7.679688 V 36.671874 c 0,-1.599998 0.320938,-2.976907 0.960937,-4.128906 0.704,-1.215999 1.599501,-2.208563 2.6875,-2.976562 1.087999,-0.767999 2.336142,-1.342563 3.744141,-1.726563 1.407998,-0.383999 2.880017,-0.576172 4.416016,-0.576172 3.647996,0 6.336454,1.119378 8.064453,3.359375 1.727998,2.239998 2.591796,5.56838 2.591797,9.984375 v 30.431641 h 7.679687 V 36.671874 c 0,-1.599998 0.318985,-2.976907 0.958984,-4.128906 0.64,-1.215999 1.503798,-2.208563 2.591797,-2.976562 1.087999,-0.767999 2.304439,-1.342563 3.648438,-1.726563 1.407998,-0.383999 2.880017,-0.576172 4.416015,-0.576172 3.775997,0 6.527861,1.119378 8.25586,3.359375 1.727998,2.239998 2.591797,5.56838 2.591797,9.984375 v 30.431641 h 7.68164 V 39.263671 c 0,-6.015994 -1.440315,-10.655925 -4.320312,-13.919921 -2.815997,-3.327997 -6.752599,-4.992188 -11.808594,-4.992188 -4.223996,0 -7.584081,1.024268 -10.080078,3.072266 -2.431998,1.983998 -4.096189,4.319815 -4.992188,7.007812 H 36.576172 C 35.232173,26.847644 33.183638,24.287951 30.431641,22.751953 27.679644,21.151954 24.6722,20.351562 21.408203,20.351562 Z m 80.046867,0 c -4.479986,0 -8.190756,0.958908 -11.134756,2.878906 -2.944,1.855998 -5.08764,4.128409 -6.43164,6.816406 l 4.60742,4.320313 c 1.344,-2.239998 3.00819,-4.032954 4.99219,-5.376953 2.048,-1.343999 4.57598,-2.015625 7.583976,-2.015625 3.968,0 6.91204,0.929158 8.83203,2.785156 1.92,1.855998 2.87891,4.542504 2.87891,8.0625 v 4.896485 h -9.79102 c -7.231986,0 -12.577196,1.248143 -16.033196,3.74414 -3.392,2.495998 -5.08789,6.079958 -5.08789,10.751953 0,4.607999 1.44032,8.255359 4.32031,10.943359 2.944,2.688 7.04107,4.0332 12.28906,4.0332 3.455996,0 6.431736,-0.76869 8.927736,-2.30468 2.496,-1.536 4.287,-3.84012 5.375,-6.91211 h 0.48047 c 0.32,2.30399 1.08869,4.22376 2.30469,5.75976 1.27999,1.536 3.36023,2.30469 6.24023,2.30469 h 4.31836 v -6.7207 h -5.66406 V 37.054687 c 0,-5.247995 -1.66224,-9.343112 -4.99024,-12.287109 -3.32799,-2.943997 -8.00158,-4.416016 -14.01758,-4.416016 z m 148.27344,0 c -3.45599,0 -6.5605,0.60822 -9.3125,1.824219 -2.752,1.215999 -5.08781,2.943596 -7.00781,5.183593 -1.856,2.239998 -3.29631,4.96016 -4.32031,8.160157 -0.96,3.199997 -1.43946,6.783957 -1.43946,10.751953 0,3.967996 0.47946,7.551956 1.43946,10.751953 1.024,3.199997 2.46431,5.920155 4.32031,8.160155 1.92,2.24 4.25581,3.9676 7.00781,5.18359 2.752,1.216 5.85651,1.82422 9.3125,1.82422 4.736,0 8.67065,-1.05597 11.80664,-3.16796 3.2,-2.112 5.60118,-4.96093 7.20117,-8.544927 l -5.56836,-3.744141 c -2.75199,5.759998 -7.23145,8.640628 -13.43945,8.640628 -4.54399,0 -8.00114,-1.37691 -10.36914,-4.12891 -2.304,-2.815996 -3.45508,-6.399956 -3.45508,-10.751952 v -8.447266 c 0,-2.175997 0.28728,-4.159173 0.86328,-5.951171 0.576,-1.855999 1.4398,-3.42508 2.5918,-4.705079 1.152,-1.343998 2.59232,-2.368266 4.32031,-3.072265 1.728,-0.767999 3.74483,-1.150391 6.04883,-1.150391 3.072,0 5.63169,0.70333 7.67969,2.111328 2.048,1.407999 3.52002,3.391175 4.41602,5.951172 l 6.43164,-3.263672 c -1.472,-3.455996 -3.71271,-6.239564 -6.72071,-8.351562 -2.94399,-2.175998 -6.87864,-3.263672 -11.80664,-3.263672 z m 50,0 c -3.32799,0 -6.36909,0.60822 -9.12109,1.824219 -2.752,1.215999 -5.11952,2.975299 -7.10352,5.279297 -1.92,2.239997 -3.42372,4.960159 -4.51172,8.160156 -1.088,3.199997 -1.63281,6.752254 -1.63281,10.65625 0,3.967996 0.54481,7.551956 1.63281,10.751953 1.088,3.135997 2.59172,5.856155 4.51172,8.160155 1.984,2.24 4.35152,3.9676 7.10352,5.18359 2.752,1.216 5.7931,1.82422 9.12109,1.82422 3.328,0 6.33544,-0.60822 9.02344,-1.82422 2.752,-1.21599 5.11952,-2.94359 7.10351,-5.18359 1.984,-2.304 3.51943,-5.024158 4.60743,-8.160155 1.088,-3.199997 1.63281,-6.783957 1.63281,-10.751953 0,-3.903996 -0.54481,-7.456253 -1.63281,-10.65625 -1.088,-3.199997 -2.62343,-5.920159 -4.60743,-8.160156 -1.98399,-2.303998 -4.35151,-4.063298 -7.10351,-5.279297 -2.688,-1.215999 -5.69544,-1.824219 -9.02344,-1.824219 z m 0,6.816406 c 4.16,0 7.55179,1.279847 10.17578,3.839844 2.624,2.559997 3.93555,6.462943 3.93555,11.710938 v 7.103515 c 0,5.247995 -1.31155,9.152893 -3.93555,11.712887 -2.62399,2.56 -6.01578,3.83985 -10.17578,3.83985 -4.15999,0 -7.55178,-1.27985 -10.17578,-3.83985 -2.624,-2.559994 -3.9375,-6.464892 -3.9375,-11.712887 V 42.71875 c 0,-5.247995 1.3135,-9.150941 3.9375,-11.710938 2.624,-2.559997 6.01579,-3.839844 10.17578,-3.839844 z M 102.60742,48.478515 h 10.17578 v 8.160156 c 0,1.279999 -0.31899,2.464736 -0.95898,3.552735 -0.64,1.087996 -1.53551,2.046906 -2.6875,2.878906 -1.152,0.832 -2.52891,1.47192 -4.12891,1.91992 -1.6,0.448 -3.3593,0.67188 -5.279296,0.67188 -3.008,0 -5.40917,-0.67163 -7.20117,-2.01563 -1.728,-1.344 -2.5918,-3.232063 -2.5918,-5.664061 v -2.015625 c 0,-2.431997 0.99257,-4.28836 2.97657,-5.568359 2.04799,-1.279999 5.27931,-1.919922 9.695306,-1.919922 z" />
</svg>
